P3
8 8
255

255 255 255  255 255 255  255 255 255  255 255 255  255 255 255  255 255 255  255 255 255  255 255 255
255 255 255  255 255 255  0   0   0    0   0   0    0   0   0    0   0   0    255 255 255  255 255 255
0   0   0    0   0   0    176 176 176  255 108 0    255 219 0    176 176 176  0   0   0    0   0   0
0   0   0    176 176 176  255 108 0    255 219 0    255 108 0    255 219 0    176 176 176  0   0   0
136 136 136  0   0   0    0   0   0    255 108 0    255 219 0    0   0   0    0   0   0    136 136 136
255 255 255  136 136 136  136 136 136  0   0   0    0   0   0    136 136 136  136 136 136  255 255 255
255 255 255  255 255 255  136 136 136  136 136 136  136 136 136  136 136 136  255 255 255  255 255 255
255 255 255  255 255 255  255 255 255  136 136 136  136 136 136  255 255 255  255 255 255  255 255 255
